HIERARCHY
ROOT joint_0
{
	OFFSET 0.000000 0.000000 0.000000
	CHANNELS 6 Xposition Yposition Zposition Zrotation Yrotation Xrotation 
	JOINT joint_1
	{
		OFFSET 6.004005 -1.946999 100.587036
		CHANNELS 3 Zrotation Yrotation Xrotation
		JOINT joint_2
		{
			OFFSET -4.601006 -0.824997 91.925903
			CHANNELS 3 Zrotation Yrotation Xrotation
			JOINT joint_3
			{
				OFFSET -5.420998 -1.130005 91.774048
				CHANNELS 3 Zrotation Yrotation Xrotation
				JOINT joint_4
				{
					OFFSET 4.308998 -3.777992 123.473999
					CHANNELS 3 Zrotation Yrotation Xrotation
					JOINT joint_5
					{
						OFFSET 25.565002 -6.305008 79.437988
						CHANNELS 3 Zrotation Yrotation Xrotation
						End Site
						{
							OFFSET 0.000000 0.000000 0.000000
						}
					}
				}
				JOINT joint_6
				{
					OFFSET -1.750000 -28.655998 68.557983
					CHANNELS 3 Zrotation Yrotation Xrotation
					JOINT joint_7
					{
						OFFSET -17.692001 -116.544006 -17.244019
						CHANNELS 3 Zrotation Yrotation Xrotation
						JOINT joint_8
						{
							OFFSET 27.063004 -23.640991 -266.895020
							CHANNELS 3 Zrotation Yrotation Xrotation
							JOINT joint_9
							{
								OFFSET 40.722000 -15.761017 -232.488953
								CHANNELS 3 Zrotation Yrotation Xrotation
								End Site
								{
									OFFSET 0.000000 0.000000 0.000000
								}
							}
						}
					}
				}
				JOINT joint_10
				{
					OFFSET 6.593002 24.457001 69.892944
					CHANNELS 3 Zrotation Yrotation Xrotation
					JOINT joint_11
					{
						OFFSET 24.311996 114.920002 -19.872925
						CHANNELS 3 Zrotation Yrotation Xrotation
						JOINT joint_12
						{
							OFFSET 21.081001 15.319000 -268.037964
							CHANNELS 3 Zrotation Yrotation Xrotation
							JOINT joint_13
							{
								OFFSET 27.794006 -8.947001 -234.744080
								CHANNELS 3 Zrotation Yrotation Xrotation
								End Site
								{
									OFFSET 0.000000 0.000000 0.000000
								}
							}
						}
					}
				}
			}
		}
	}
	JOINT joint_14
	{
		OFFSET -6.627998 -80.520004 -98.790039
		CHANNELS 3 Zrotation Yrotation Xrotation
		JOINT joint_15
		{
			OFFSET -43.638000 -13.751999 -502.538971
			CHANNELS 3 Zrotation Yrotation Xrotation
			JOINT joint_16
			{
				OFFSET -39.532999 -9.912994 -398.071007
				CHANNELS 3 Zrotation Yrotation Xrotation
				JOINT joint_17
				{
					OFFSET 174.940004 -34.660995 -75.688002
					CHANNELS 3 Zrotation Yrotation Xrotation
					End Site
					{
						OFFSET 0.000000 0.000000 0.000000
					}
				}
			}
		}
	}
	JOINT joint_18
	{
		OFFSET 12.591003 79.842003 -98.765015
		CHANNELS 3 Zrotation Yrotation Xrotation
		JOINT joint_19
		{
			OFFSET -39.080002 -1.297001 -503.101013
			CHANNELS 3 Zrotation Yrotation Xrotation
			JOINT joint_20
			{
				OFFSET -51.570000 -0.514000 -396.815987
				CHANNELS 3 Zrotation Yrotation Xrotation
				JOINT joint_21
				{
					OFFSET 178.987999 -11.521999 -73.244003
					CHANNELS 3 Zrotation Yrotation Xrotation
					End Site
					{
						OFFSET 0.000000 0.000000 0.000000
					}
				}
			}
		}
	}
}
MOTION
Frames: 18
Frame Time: 0.016667
560.250000 -159.951000 1042.769040 -1.373502 8.485721 1.107900 2.178831 0.748332 -0.794690 1.788520 -0.256947 0.248260 1.647305 0.223154 -0.273494 -0.331878 -4.462201 -0.155214 0.000000 0.000000 0.000000 5.095070 -5.659467 2.469993 -0.385823 -4.311771 -0.087435 3.482321 -13.398743 26.064514 0.000000 0.000000 0.000000 0.685879 -7.420641 -0.892382 -1.557380 -6.348534 -6.977151 -3.606087 -1.337405 -28.377317 0.000000 0.000000 0.000000 -3.905122 6.981890 -5.010521 -5.641955 25.878470 -1.214001 -9.936109 7.390107 -2.295772 0.000000 0.000000 0.000000 1.902006 -40.846506 -4.034096 0.656954 25.825809 1.710192 0.767389 -0.895633 0.195575 0.000000 0.000000 0.000000 
586.101990 -156.970990 1037.866940 -1.648689 7.549924 1.601460 2.343396 0.972170 -1.827377 1.709422 -0.237387 0.469923 1.502010 0.232687 -0.379108 -0.436329 -4.510029 0.149033 0.000000 0.000000 0.000000 5.153794 -5.925722 2.649236 -0.381758 -4.537410 -0.033034 3.437820 -13.111313 25.646799 0.000000 0.000000 0.000000 0.521852 -7.646545 -1.122050 -1.384422 -6.627370 -6.556699 -3.500481 -0.872668 -28.198663 0.000000 0.000000 0.000000 -3.495469 6.177355 -5.930065 -5.777760 31.080408 -1.737030 -12.170426 8.554115 -3.315583 0.000000 0.000000 0.000000 2.229789 -40.260079 -5.114270 1.260830 29.931634 2.777104 1.640384 -1.276061 0.490068 0.000000 0.000000 0.000000 
611.310000 -154.014010 1034.166990 -2.079073 6.594171 2.044188 2.530006 1.370106 -2.691307 1.642888 -0.277426 0.617608 1.385287 0.240489 -0.478825 -0.519556 -4.568154 0.391131 0.000000 0.000000 0.000000 5.268812 -6.190680 2.766355 -0.315807 -4.805241 0.238815 3.392683 -12.773145 24.905671 0.000000 0.000000 0.000000 0.368020 -7.896971 -1.313738 -1.209828 -6.901323 -6.241436 -3.367155 -0.420504 -27.836163 0.000000 0.000000 0.000000 -2.485121 5.031019 -6.767421 -5.358905 36.687393 -1.567301 -13.926633 10.263319 -4.607444 0.000000 0.000000 0.000000 2.644443 -39.409357 -6.161880 1.910729 33.813227 3.936910 2.636194 -1.625408 0.830411 0.000000 0.000000 0.000000 
635.776980 -150.996000 1032.739990 -2.471216 5.818048 2.344153 2.696279 1.716825 -3.114759 1.538052 -0.325222 0.653997 1.238542 0.278763 -0.539340 -0.535295 -4.572228 0.446170 0.000000 0.000000 0.000000 5.508285 -6.328216 2.685794 -0.150351 -5.043218 0.970162 3.335661 -12.510549 23.544144 0.000000 0.000000 0.000000 0.338936 -8.121915 -1.428863 -1.077504 -7.091364 -6.283394 -3.209636 -0.069775 -27.120452 0.000000 0.000000 0.000000 -0.685116 3.416644 -7.493057 -4.266136 42.687911 0.153699 -13.799111 12.602881 -5.734222 0.000000 0.000000 0.000000 2.747385 -38.267007 -7.005377 2.333810 36.280100 4.870237 3.310358 -2.210256 1.039293 0.000000 0.000000 0.000000 
659.591000 -147.934010 1033.006960 -2.951456 5.146883 2.674325 2.922061 2.071858 -3.491869 1.421155 -0.381551 0.733082 1.057677 0.346250 -0.583339 -0.507231 -4.556771 0.373524 0.000000 0.000000 0.000000 5.860792 -6.408972 2.477801 0.085306 -5.294826 2.079371 3.251315 -12.252926 21.637404 0.000000 0.000000 0.000000 0.367018 -8.370504 -1.474349 -0.970204 -7.251928 -6.581484 -3.023974 0.252832 -26.093031 0.000000 0.000000 0.000000 1.783254 1.343003 -8.418093 -2.662059 49.009261 3.220663 -11.450820 15.899014 -6.608136 0.000000 0.000000 0.000000 2.772787 -36.922441 -7.901169 2.733720 38.139827 5.769010 3.922884 -3.153477 1.204577 0.000000 0.000000 0.000000 
682.497990 -145.063000 1034.672000 -3.545100 4.623646 2.938712 3.096519 2.360780 -3.811848 1.322648 -0.436653 0.827016 0.909760 0.400023 -0.612435 -0.464973 -4.541558 0.259747 0.000000 0.000000 0.000000 6.149372 -6.512221 2.297056 0.294977 -5.549518 3.041478 3.185734 -11.955400 20.041803 0.000000 0.000000 0.000000 0.420981 -8.540632 -1.488569 -0.851567 -7.340894 -6.835408 -2.850570 0.344135 -25.228246 0.000000 0.000000 0.000000 3.845096 -1.039812 -9.342177 -1.299245 54.605843 5.972234 -8.595207 18.345680 -8.587724 0.000000 0.000000 0.000000 2.798215 -35.493992 -8.631460 3.128000 39.415928 6.499987 4.477206 -3.980963 1.358496 0.000000 0.000000 0.000000 
704.133970 -142.539000 1037.711060 -4.260141 4.333058 2.981988 3.113813 2.459049 -3.903045 1.265499 -0.462022 0.846368 0.853275 0.416015 -0.630097 -0.423782 -4.537630 0.151043 0.000000 0.000000 0.000000 6.228026 -6.705296 2.233795 0.442973 -5.826011 3.513784 3.193528 -11.551605 19.365601 0.000000 0.000000 0.000000 0.490235 -8.553125 -1.487266 -0.690454 -7.322115 -6.839236 -2.710560 0.006295 -24.864787 0.000000 0.000000 0.000000 4.707257 -3.942846 -9.854842 -0.669494 59.413490 7.019038 -7.559526 18.459388 -14.536166 0.000000 0.000000 0.000000 2.845408 -34.132454 -8.947487 3.502400 40.095355 6.987430 4.951074 -4.432919 1.506766 0.000000 0.000000 0.000000 
724.594970 -140.274000 1042.223020 -5.098859 4.255690 2.872153 3.016330 2.397304 -3.847704 1.247564 -0.463209 0.844293 0.863578 0.415160 -0.635691 -0.372454 -4.539004 0.013683 0.000000 0.000000 0.000000 6.161085 -6.960992 2.229765 0.571267 -6.132654 3.699087 3.261292 -11.056951 19.282045 0.000000 0.000000 0.000000 0.584008 -8.449343 -1.451277 -0.498456 -7.212032 -6.714441 -2.583161 -0.685557 -24.820349 0.000000 0.000000 0.000000 4.767385 -7.460593 -9.955971 -0.407928 63.774195 6.914129 -7.783125 17.623241 -25.181292 0.000000 0.000000 0.000000 2.881042 -32.808590 -8.970813 3.871196 40.215039 7.294529 5.361481 -4.756852 1.639523 0.000000 0.000000 0.000000 
744.745970 -138.258000 1047.547000 -5.841591 4.207984 2.750078 2.844260 2.316232 -3.801997 1.199106 -0.457968 0.860476 0.842776 0.410938 -0.628763 -0.331739 -4.551081 -0.092189 0.000000 0.000000 0.000000 6.033370 -7.150383 2.221632 0.674763 -6.352057 3.689933 3.373996 -10.754044 19.579514 0.000000 0.000000 0.000000 0.667653 -8.267058 -1.385834 -0.298460 -7.019470 -6.563814 -2.468657 -1.482284 -24.991608 0.000000 0.000000 0.000000 4.198217 -11.051734 -9.818329 -0.392002 67.151218 6.110602 -8.682491 16.354377 -33.810081 0.000000 0.000000 0.000000 2.841276 -31.303199 -8.898039 4.154017 39.821558 7.416474 5.637518 -4.966061 1.731526 0.000000 0.000000 0.000000 
765.177980 -136.435000 1053.411010 -6.372151 4.061439 2.663481 2.631285 2.304553 -3.770977 1.070526 -0.443576 0.870338 0.731955 0.411102 -0.613099 -0.318488 -4.578949 -0.116454 0.000000 0.000000 0.000000 5.898620 -7.183487 2.161065 0.743101 -6.393041 3.482778 3.536615 -10.881267 20.216576 0.000000 0.000000 0.000000 0.715437 -7.998890 -1.298768 -0.099096 -6.721600 -6.439237 -2.368546 -2.290919 -25.361692 0.000000 0.000000 0.000000 3.134707 -14.388567 -9.571258 -0.573513 69.358120 5.012928 -9.852176 12.795328 -31.945406 0.000000 0.000000 0.000000 2.696681 -29.419258 -8.792720 4.275830 38.862204 7.331182 5.705426 -5.038121 1.758508 0.000000 0.000000 0.000000 
785.562010 -134.806000 1060.077030 -6.810624 3.876464 2.537852 2.376733 2.331136 -3.659794 0.899340 -0.428447 0.839243 0.581973 0.416550 -0.586234 -0.324117 -4.618513 -0.083256 0.000000 0.000000 0.000000 5.722930 -7.121196 2.078601 0.784076 -6.308574 3.021526 3.766125 -11.318468 21.275462 0.000000 0.000000 0.000000 0.735239 -7.629917 -1.200958 0.113378 -6.316093 -6.306534 -2.274336 -3.210378 -25.955526 0.000000 0.000000 0.000000 1.876608 -17.575534 -9.084864 -0.758830 70.523860 4.034232 -11.462329 8.064850 -24.121753 0.000000 0.000000 0.000000 2.487445 -27.221805 -8.556980 4.270101 37.297527 7.040078 5.599771 -4.964068 1.733338 0.000000 0.000000 0.000000 
805.810000 -133.610000 1066.745970 -7.101460 3.728749 2.383808 2.078579 2.313139 -3.524274 0.706031 -0.411576 0.800936 0.408617 0.411159 -0.553449 -0.338459 -4.647009 -0.020337 0.000000 0.000000 0.000000 5.512153 -7.006785 2.007278 0.824507 -6.167109 2.500799 4.017021 -11.822951 22.413351 0.000000 0.000000 0.000000 0.747839 -7.293816 -1.098832 0.312389 -5.936310 -6.192049 -2.186912 -3.927989 -26.599987 0.000000 0.000000 0.000000 0.713675 -20.552384 -8.381669 -0.873094 70.754991 3.406958 -13.158186 4.371953 -17.032456 0.000000 0.000000 0.000000 2.261683 -24.953700 -8.261804 4.161210 35.445779 6.639305 5.385697 -4.794322 1.674957 0.000000 0.000000 0.000000 
825.843990 -133.078000 1072.984010 -7.199635 3.701330 2.195702 1.702154 2.128146 -3.387987 0.507453 -0.363251 0.765544 0.238737 0.373857 -0.514041 -0.357620 -4.636979 0.064638 0.000000 0.000000 0.000000 5.259773 -6.846863 1.955386 0.884670 -5.998322 2.059715 4.259657 -12.234024 23.436953 0.000000 0.000000 0.000000 0.779463 -7.080505 -0.972203 0.475345 -5.667305 -6.112579 -2.114535 -4.197546 -27.218983 0.000000 0.000000 0.000000 -0.440250 -23.347932 -7.435259 -1.073534 70.034692 2.825238 -14.826295 1.750142 -12.413357 0.000000 0.000000 0.000000 2.025491 -22.792221 -7.903029 3.963350 33.482644 6.161603 5.092531 -4.578261 1.590005 0.000000 0.000000 0.000000 
845.687990 -133.123000 1079.108030 -7.158783 3.771522 1.946459 1.252777 1.802503 -3.190640 0.306435 -0.285870 0.704107 0.082267 0.314159 -0.467231 -0.384917 -4.597486 0.179757 0.000000 0.000000 0.000000 4.960391 -6.629132 1.913673 0.953900 -5.778289 1.610783 4.513620 -12.638257 24.480187 0.000000 0.000000 0.000000 0.820827 -6.938092 -0.820854 0.613711 -5.458494 -6.051920 -2.056517 -4.137876 -27.886633 0.000000 0.000000 0.000000 -1.561319 -25.914844 -6.278767 -1.391618 68.244881 2.296461 -16.082558 0.191418 -9.347340 0.000000 0.000000 0.000000 1.769177 -20.642588 -7.404133 3.682512 31.265800 5.554560 4.707249 -4.272353 1.476718 0.000000 0.000000 0.000000 
865.507020 -133.403000 1084.609990 -6.979375 3.832511 1.691904 0.813903 1.524514 -2.967751 0.086861 -0.228482 0.641080 -0.099276 0.258125 -0.421669 -0.411674 -4.574588 0.287839 0.000000 0.000000 0.000000 4.678022 -6.388632 1.880364 1.019915 -5.537811 1.200088 4.751200 -13.112643 25.359322 0.000000 0.000000 0.000000 0.833516 -6.868679 -0.685061 0.731579 -5.315048 -6.027339 -2.004295 -3.890708 -28.481183 0.000000 0.000000 0.000000 -2.567020 -28.099637 -5.117872 -1.869691 65.647748 1.823240 -16.596122 -0.789534 -7.618954 0.000000 0.000000 0.000000 1.544204 -18.493402 -6.903085 3.344551 29.040468 4.941469 4.272874 -3.917018 1.346759 0.000000 0.000000 0.000000 
885.434020 -133.660000 1089.157960 -6.658728 3.840358 1.467055 0.419581 1.357522 -2.748758 -0.158296 -0.192964 0.603127 -0.320763 0.220882 -0.388169 -0.430770 -4.590775 0.362864 0.000000 0.000000 0.000000 4.457720 -6.130054 1.845203 1.075500 -5.284581 0.885151 4.949978 -13.733026 25.931037 0.000000 0.000000 0.000000 0.790868 -6.883560 -0.581012 0.830035 -5.244263 -6.064614 -1.952856 -3.519041 -28.913754 0.000000 0.000000 0.000000 -3.399490 -29.842999 -4.131886 -2.478153 62.323851 1.464288 -16.292506 -1.520646 -6.632509 0.000000 0.000000 0.000000 1.375954 -16.362467 -6.482779 2.963660 26.971978 4.403054 3.811335 -3.581903 1.202954 0.000000 0.000000 0.000000 
905.406980 -134.021000 1092.956050 -6.201405 3.839907 1.251978 0.035863 1.223938 -2.525130 -0.421327 -0.158209 0.582543 -0.563830 0.192432 -0.362162 -0.445249 -4.631366 0.418047 0.000000 0.000000 0.000000 4.273922 -5.835873 1.808218 1.122104 -5.002537 0.648569 5.117576 -14.477034 26.270997 0.000000 0.000000 0.000000 0.706677 -6.981491 -0.492048 0.908437 -5.243245 -6.154495 -1.907004 -2.969007 -29.234617 0.000000 0.000000 0.000000 -4.089703 -31.167365 -3.289283 -3.174107 58.058599 1.188085 -15.392010 -1.688043 -5.914759 0.000000 0.000000 0.000000 1.228098 -14.255837 -6.064345 2.541206 24.962898 3.877361 3.309886 -3.256836 1.041405 0.000000 0.000000 0.000000 
925.317990 -134.656010 1095.900020 -5.656617 3.842208 1.061926 -0.301115 1.126539 -2.315356 -0.676148 -0.128295 0.548205 -0.801157 0.172149 -0.336738 -0.471209 -4.721846 0.497381 0.000000 0.000000 0.000000 4.120542 -5.568505 1.813767 1.146481 -4.737994 0.448120 5.243472 -15.239907 26.432870 0.000000 0.000000 0.000000 0.591546 -7.132669 -0.433090 0.967968 -5.303078 -6.239857 -1.873362 -2.363175 -29.465587 0.000000 0.000000 0.000000 -4.702395 -32.087461 -2.486474 -3.935668 53.080955 0.869581 -14.182948 -1.654943 -5.398461 0.000000 0.000000 0.000000 1.087374 -12.256126 -5.640514 2.107400 23.148234 3.364190 2.795476 -2.940056 0.871880 0.000000 0.000000 0.000000 
